Coordinates
version=1
nRows=9
nColumns=63
inDegrees=yes

Units are S.I. units (second, meters, Newtons, ...)
If the header above contains a line with 'inDegrees', this indicates whether rotational values are in degrees (yes) or radians (no).

endheader
time	pelvis_tilt	pelvis_list	pelvis_rotation	pelvis_tx	pelvis_ty	pelvis_tz	hip_flexion_r	hip_adduction_r	hip_rotation_r	knee_angle_r	knee_angle_r_beta	ankle_angle_r	subtalar_angle_r	mtp_angle_r	hip_flexion_l	hip_adduction_l	hip_rotation_l	knee_angle_l	knee_angle_l_beta	ankle_angle_l	subtalar_angle_l	mtp_angle_l	L5_S1_Flex_Ext	L5_S1_Lat_Bending	L5_S1_axial_rotation	L4_L5_Flex_Ext	L4_L5_Lat_Bending	L4_L5_axial_rotation	L3_L4_Flex_Ext	L3_L4_Lat_Bending	L3_L4_axial_rotation	L2_L3_Flex_Ext	L2_L3_Lat_Bending	L2_L3_axial_rotation	L1_L2_Flex_Ext	L1_L2_Lat_Bending	L1_L2_axial_rotation	L1_T12_Flex_Ext	L1_T12_Lat_Bending	L1_T12_axial_rotation	Abs_r3	Abs_r2	Abs_r1	Abs_t1	Abs_t2	neck_flexion	neck_bending	neck_rotation	arm_flex_r	arm_add_r	arm_rot_r	elbow_flex_r	pro_sup_r	wrist_flex_r	wrist_dev_r	arm_flex_l	arm_add_l	arm_rot_l	elbow_flex_l	pro_sup_l	wrist_flex_l	wrist_dev_l
3.383333	-2.761798	-1.886896	87.263143	0.056300	0.883689	0.721079	5.591578	-2.708708	12.873292	14.496873	0.253018	33.455591	-6.945924	0.000000	0.991503	4.126447	-2.396418	4.132368	0.072123	32.392424	-6.983007	0.000000	0.152048	-1.239371	3.428365	0.282368	-1.648363	3.642638	0.249800	-3.013406	3.642638	0.173776	-3.013406	2.999820	0.141192	-2.527325	2.785547	0.086880	-1.919785	2.571274	1.086064	-14.020009	19.067539	0.000000	0.000000	10.106088	6.248447	-35.518097	27.457480	-56.415013	59.423885	116.533707	66.183305	-2.665494	-5.748671	34.495310	7.986085	62.971471	99.148463	85.057870	-3.393326	10.148843
3.400000	-2.612760	-1.774708	87.166485	0.056200	0.883939	0.721679	5.515381	-2.579396	12.833884	14.475436	0.252644	33.494451	-6.683083	0.000000	0.952099	3.957839	-3.250372	4.404497	0.076873	32.581488	-6.038034	0.000000	0.136917	-1.197733	3.447768	0.254268	-1.592984	3.663254	0.224940	-2.912167	3.663254	0.156482	-2.912167	3.016797	0.127141	-2.442416	2.801312	0.078234	-1.855288	2.585826	0.977981	-13.548991	19.175451	0.000000	0.000000	10.234070	6.113992	-34.003969	27.901535	-55.869788	59.644170	116.558149	65.684179	-2.738445	-4.704997	34.392933	8.033500	63.727263	98.814112	87.946351	-4.152977	10.982128
3.416667	-2.482038	-1.675951	87.009493	0.056162	0.884130	0.722411	5.487752	-2.463489	12.827832	14.490926	0.252914	33.528267	-6.406695	0.000000	0.911166	3.813107	-4.040787	4.615510	0.080556	32.725809	-5.244542	0.000000	0.119358	-1.159859	3.481921	0.221660	-1.542613	3.699541	0.196093	-2.820081	3.699541	0.136414	-2.820081	3.046681	0.110836	-2.365185	2.829061	0.068201	-1.796622	2.611441	0.852562	-13.120558	19.365400	0.000000	0.000000	10.437264	5.971635	-32.686303	28.188239	-55.422549	59.783579	116.734422	64.911439	-2.951829	-3.265973	34.321040	8.000750	64.439559	98.743870	90.106649	-5.708069	12.431320
3.433333	-2.396725	-1.612410	86.753689	0.056272	0.884244	0.723247	5.543801	-2.373226	12.930477	14.556453	0.254058	33.554006	-6.147821	0.000000	0.889494	3.717758	-4.791671	4.747108	0.082853	32.794961	-4.638516	0.000000	0.105239	-1.129434	3.526931	0.195440	-1.502147	3.747364	0.172898	-2.746105	3.747364	0.120278	-2.746105	3.086065	0.097725	-2.303141	2.865632	0.060134	-1.749493	2.645198	0.751715	-12.776378	19.615733	0.000000	0.000000	10.702461	5.892039	-31.455975	28.349296	-55.037047	59.891371	116.991038	64.270731	-3.399804	-1.515726	34.215788	7.815203	65.106835	98.975500	90.569592	-7.657516	14.107525
3.450000	-2.351916	-1.572037	86.429955	0.056495	0.884301	0.724169	5.661496	-2.311271	13.098171	14.665201	0.255956	33.575625	-5.892750	0.000000	0.873889	3.669398	-5.450850	4.795837	0.083703	32.788723	-4.240057	0.000000	0.092251	-1.106039	3.566818	0.171319	-1.471032	3.789744	0.151559	-2.689224	3.789744	0.105434	-2.689224	3.120966	0.085664	-2.255435	2.898039	0.052712	-1.713255	2.675113	0.658939	-12.511736	19.837570	0.000000	0.000000	11.042422	5.846210	-30.306471	28.634618	-54.692391	60.256295	117.182136	63.550693	-4.112618	0.224903	34.006716	7.451978	65.646063	99.563047	89.691227	-9.661329	16.081798
3.466667	-2.350754	-1.565405	86.053993	0.056815	0.884298	0.725101	5.837295	-2.282020	13.331093	14.800219	0.258313	33.589361	-5.653759	0.000000	0.873817	3.671803	-5.982834	4.761011	0.083095	32.704309	-4.077639	0.000000	0.081300	-1.091493	3.610658	0.150982	-1.451686	3.836324	0.133567	-2.653857	3.836324	0.092918	-2.653857	3.159326	0.075495	-2.225774	2.933660	0.046455	-1.690723	2.707994	0.580716	-12.347193	20.081397	0.000000	0.000000	11.467510	5.818917	-29.330896	28.849126	-54.378050	60.669033	117.254440	62.835482	-4.984539	1.643869	33.710196	6.927925	66.139230	100.442821	87.491142	-11.244141	18.242011
3.483333	-2.399209	-1.591002	85.611661	0.057271	0.884230	0.726058	6.077870	-2.281615	13.673934	14.969093	0.261260	33.581356	-5.470375	0.000000	0.889300	3.729503	-6.404195	4.638495	0.080957	32.540911	-4.157074	0.000000	0.073477	-1.084704	3.648289	0.136453	-1.442657	3.876307	0.120715	-2.637350	3.876307	0.083976	-2.637350	3.192253	0.068230	-2.211929	2.964235	0.041984	-1.680207	2.736217	0.524835	-12.270391	20.290688	0.000000	0.000000	11.932669	5.829851	-28.365586	29.241477	-54.022693	61.387075	117.224801	61.866208	-5.927962	2.768572	33.305823	6.212117	66.466362	101.626394	86.200386	-12.151485	20.529198
3.500000	-2.499852	-1.653771	85.132067	0.057833	0.884081	0.726975	6.377100	-2.318120	14.083756	15.162131	0.264629	33.569522	-5.310484	0.000000	0.927106	3.844182	-6.671669	4.439868	0.077490	32.301194	-4.492722	0.000000	0.067701	-1.086959	3.693561	0.125728	-1.445656	3.924408	0.111226	-2.642833	3.924408	0.077376	-2.642833	3.231866	0.062867	-2.216527	3.001018	0.038684	-1.683700	2.770171	0.483582	-12.295901	20.542478	0.000000	0.000000	12.466417	5.816424	-27.557732	29.393248	-53.596369	61.913554	117.211598	60.932407	-6.605667	3.555891	32.882891	5.378827	66.742697	102.992981	85.179237	-12.198671	22.702938
3.516667	-2.647893	-1.755496	84.646532	0.058500	0.883840	0.727818	6.728551	-2.384280	14.535477	15.373258	0.268314	33.549936	-5.192505	0.000000	0.993984	4.006952	-6.766710	4.181237	0.072976	32.005852	-5.070028	0.000000	0.064495	-1.097460	3.743588	0.119774	-1.459622	3.977563	0.105959	-2.668364	3.977563	0.073711	-2.668364	3.275640	0.059890	-2.237940	3.041665	0.036852	-1.699965	2.807691	0.460681	-12.414686	20.820715	0.000000	0.000000	13.063334	5.759117	-26.911196	29.201105	-53.014575	62.079389	117.254286	60.283469	-6.773648	4.069271	32.498876	4.470566	66.993390	104.429499	83.977980	-11.512831	24.660191
